<svg width="15" height="15" viewBox="0 0 15 15" fill="none" xmlns="http://www.w3.org/2000/svg">
<path fill-rule="evenodd" clip-rule="evenodd" d="M8.51332 10.8446C6.89174 10.0338 4.15531 7.80405 3.74992 5.37162C3.74992 5.37162 3.64857 4.76351 4.35801 4.15541C4.35801 4.15541 5.1688 3.34459 5.47285 3.9527C5.97959 4.66216 6.38499 5.37162 6.38499 5.37162C6.38499 5.37162 6.58769 5.67568 6.28364 5.97973C5.97959 6.28378 5.87825 6.89189 6.38499 7.39865C6.79039 7.90541 7.90523 9.12162 8.51332 8.81757C9.12142 8.51351 9.12142 8.20946 9.72951 8.61486C10.3376 9.02027 11.047 9.52703 11.047 9.52703C11.047 9.52703 11.4524 9.93243 11.047 10.3378C10.6417 10.7432 10.0336 11.5541 8.51332 10.7432V10.8446ZM7.49983 15C11.6551 15 14.9997 11.6554 14.9997 7.5C14.9997 3.34459 11.6551 0 7.49983 0C3.34452 0 0 3.34459 0 7.5C0 11.6554 3.34452 15 7.49983 15Z" fill="#F03033"/>
</svg>
